<?xml version="1.0" encoding="UTF-8"?>
<svg version="1.1" xmlns="http://www.w3.org/2000/svg" width="128" height="128">
<path d="M0 0 C6.10154067 0.13853268 10.47166895 0.95443654 14.89404297 5.43823242 C19.01529429 9.7763917 20.89404297 13.43312612 20.89404297 19.43823242 C51.91404297 19.43823242 82.93404297 19.43823242 114.89404297 19.43823242 C114.89404297 27.31713115 114.89404297 27.31713115 113.96362305 30.99316406 C113.75953323 31.81414078 113.55544342 32.63511749 113.34516907 33.48097229 C113.12024277 34.3447197 112.89531647 35.2084671 112.66357422 36.09838867 C112.43127609 37.00648788 112.19897797 37.9145871 111.9596405 38.85020447 C111.46723039 40.7616455 110.97026161 42.67191733 110.46899414 44.58105469 C109.70915614 47.49072571 108.97584639 50.40626535 108.24365234 53.32299805 C107.76023413 55.18604619 107.27525963 57.04869135 106.78857422 58.91088867 C106.57376907 59.77666031 106.35896393 60.64243195 106.13764954 61.53443909 C104.47822688 67.70734237 102.36607791 72.06484485 96.92041016 75.78735352 C94.38686119 76.60114165 92.13227304 76.76362475 89.47216797 76.85229492 C88.44736328 76.8909668 87.42255859 76.92963867 86.36669922 76.96948242 C85.30322266 77.00041992 84.23974609 77.03135742 83.14404297 77.06323242 C82.06509766 77.1019043 80.98615234 77.14057617 79.87451172 77.18041992 C77.21452522 77.27457874 74.55454356 77.3602063 71.89404297 77.43823242 C71.62591797 78.05698242 71.35779297 78.67573242 71.08154297 79.31323242 C69.89404297 81.43823242 69.89404297 81.43823242 66.89404297 83.43823242 C64.35041057 83.59537443 61.90781853 83.64332415 59.36669922 83.60620117 C57.83609407 83.61188715 56.30549398 83.61910025 54.77490234 83.62768555 C52.37867207 83.63182664 49.98415263 83.62611664 47.58813477 83.59277344 C37.4694572 83.47370538 30.60317732 84.03261024 22.0793457 89.93554688 C19.89404297 91.43823242 19.89404297 91.43823242 17.89404297 91.43823242 C17.89404297 92.42823242 17.89404297 93.41823242 17.89404297 94.43823242 C18.97732376 94.43157059 20.06060455 94.42490875 21.17671204 94.41804504 C31.37403387 94.35729126 41.57131911 94.31228738 51.76878071 94.28279591 C57.01170188 94.26712446 62.25447722 94.24585917 67.49731445 94.21191406 C72.55474981 94.17937341 77.6120447 94.16139056 82.66957664 94.15360069 C84.60134277 94.14804766 86.53310101 94.13720424 88.46480751 94.12104225 C91.16575501 94.09933829 93.86611833 94.09626253 96.56713867 94.09765625 C97.3698671 94.08687042 98.17259552 94.07608459 98.99964905 94.06497192 C104.38031447 94.09511478 104.38031447 94.09511478 106.89103699 95.77201843 C108.47626608 98.40543332 108.26837193 100.4436007 107.89404297 103.43823242 C106.60417652 105.10150242 106.60417652 105.10150242 104.89404297 106.43823242 C101.98772978 106.73972517 99.29485338 106.85822261 96.38696289 106.84228516 C95.51834122 106.84914841 94.64971954 106.85601166 93.754776 106.86308289 C90.87785579 106.88141186 88.00147791 106.87750379 85.12451172 106.87182617 C83.12534914 106.87638599 81.12618813 106.88169096 79.12702942 106.88771057 C74.93301027 106.89665436 70.73918139 106.89420523 66.54516602 106.88427734 C61.17486991 106.872803 55.80523282 106.89296928 50.43502331 106.92219448 C46.30426367 106.94056008 42.1736617 106.94026299 38.04287148 106.93455696 C36.06335846 106.9344037 34.08383479 106.940452 32.10436058 106.95284843 C29.33225884 106.96775827 26.56137091 106.95708042 23.78930664 106.93994141 C22.56638412 106.95444336 22.56638412 106.95444336 21.3187561 106.96923828 C15.15460367 106.8896006 11.57807559 105.02971219 7.08154297 100.68823242 C4.57936326 95.94726035 4.54855762 91.86952886 5.76904297 86.81323242 C8.65828859 82.22443056 12.27057392 80.11093546 16.89404297 77.43823242 C18.56160466 76.43972564 20.22838358 75.43990931 21.89404297 74.43823242 C20.17604734 67.21793284 18.43874382 60.00256797 16.67698383 52.7928133 C15.8594256 49.44446515 15.04847949 46.09480432 14.25268555 42.74121094 C13.33646446 38.88142082 12.3914004 35.02897688 11.44482422 31.17651367 C11.02418449 29.37782585 11.02418449 29.37782585 10.595047 27.5428009 C8.59530468 19.31221292 8.59530468 19.31221292 2.89404297 13.43823242 C-0.07789942 12.73835875 -0.07789942 12.73835875 -3.16845703 12.81323242 C-8.55167293 12.74534824 -8.55167293 12.74534824 -11.45361328 11.13745117 C-13.10595703 9.43823242 -13.10595703 9.43823242 -13.48095703 5.87573242 C-12.65412749 -1.70353838 -6.06424163 0.00179027 0 0 Z M22.89404297 23.43823242 C23.20341797 25.21198242 23.51279297 26.98573242 23.83154297 28.81323242 C24.00556641 29.8109668 24.17958984 30.80870117 24.35888672 31.83666992 C24.77116359 34.40732898 24.77116359 34.40732898 25.89404297 36.43823242 C29.85404297 36.43823242 33.81404297 36.43823242 37.89404297 36.43823242 C37.74966797 34.66448242 37.60529297 32.89073242 37.45654297 31.06323242 C37.37533203 30.06549805 37.29412109 29.06776367 37.21044922 28.03979492 C37.04438671 25.45895629 37.04438671 25.45895629 35.89404297 23.43823242 C31.60404297 23.43823242 27.31404297 23.43823242 22.89404297 23.43823242 Z M40.89404297 23.43823242 C41.44210568 27.53213345 41.99230631 31.62565537 42.5480957 35.71850586 C42.73655262 37.11123657 42.92373419 38.50414048 43.10961914 39.8972168 C43.3768602 41.89831782 43.64905308 43.89875559 43.92138672 45.89916992 C44.08372803 47.1036377 44.24606934 48.30810547 44.41333008 49.54907227 C44.73690436 52.36924503 44.73690436 52.36924503 45.89404297 54.43823242 C49.19404297 54.43823242 52.49404297 54.43823242 55.89404297 54.43823242 C55.89404297 50.14823242 55.89404297 45.85823242 55.89404297 41.43823242 C52.92404297 41.10823242 49.95404297 40.77823242 46.89404297 40.43823242 C46.89404297 39.44823242 46.89404297 38.45823242 46.89404297 37.43823242 C49.53404297 37.10823242 52.17404297 36.77823242 54.89404297 36.43823242 C54.89404297 32.14823242 54.89404297 27.85823242 54.89404297 23.43823242 C50.27404297 23.43823242 45.65404297 23.43823242 40.89404297 23.43823242 Z M59.89404297 23.43823242 C59.89404297 27.72823242 59.89404297 32.01823242 59.89404297 36.43823242 C64.18404297 36.43823242 68.47404297 36.43823242 72.89404297 36.43823242 C72.89404297 32.14823242 72.89404297 27.85823242 72.89404297 23.43823242 C68.60404297 23.43823242 64.31404297 23.43823242 59.89404297 23.43823242 Z M77.89404297 23.43823242 C77.56404297 27.72823242 77.23404297 32.01823242 76.89404297 36.43823242 C81.18404297 36.43823242 85.47404297 36.43823242 89.89404297 36.43823242 C90.55404297 32.14823242 91.21404297 27.85823242 91.89404297 23.43823242 C87.27404297 23.43823242 82.65404297 23.43823242 77.89404297 23.43823242 Z M96.89404297 23.43823242 C96.56404297 24.46948242 96.23404297 25.50073242 95.89404297 26.56323242 C95.70841797 27.14331055 95.52279297 27.72338867 95.33154297 28.32104492 C94.69167636 31.0572226 94.69167636 31.0572226 94.89404297 36.43823242 C98.85404297 36.43823242 102.81404297 36.43823242 106.89404297 36.43823242 C107.88404297 32.14823242 108.87404297 27.85823242 109.89404297 23.43823242 C105.60404297 23.43823242 101.31404297 23.43823242 96.89404297 23.43823242 Z M26.89404297 41.43823242 C27.88404297 45.72823242 28.87404297 50.01823242 29.89404297 54.43823242 C33.52404297 54.43823242 37.15404297 54.43823242 40.89404297 54.43823242 C40.23404297 50.14823242 39.57404297 45.85823242 38.89404297 41.43823242 C34.93404297 41.43823242 30.97404297 41.43823242 26.89404297 41.43823242 Z M59.89404297 41.43823242 C60.22404297 45.72823242 60.55404297 50.01823242 60.89404297 54.43823242 C64.52404297 54.43823242 68.15404297 54.43823242 71.89404297 54.43823242 C71.89404297 50.14823242 71.89404297 45.85823242 71.89404297 41.43823242 C67.93404297 41.43823242 63.97404297 41.43823242 59.89404297 41.43823242 Z M76.89404297 41.43823242 C76.56404297 45.72823242 76.23404297 50.01823242 75.89404297 54.43823242 C79.52404297 54.43823242 83.15404297 54.43823242 86.89404297 54.43823242 C87.55404297 50.14823242 88.21404297 45.85823242 88.89404297 41.43823242 C84.93404297 41.43823242 80.97404297 41.43823242 76.89404297 41.43823242 Z M93.89404297 41.43823242 C93.56404297 42.84073242 93.23404297 44.24323242 92.89404297 45.68823242 C92.70841797 46.47713867 92.52279297 47.26604492 92.33154297 48.07885742 C91.77249468 50.69379244 91.77249468 50.69379244 91.89404297 54.43823242 C95.19404297 54.43823242 98.49404297 54.43823242 101.89404297 54.43823242 C102.38904297 53.03573242 102.88404297 51.63323242 103.39404297 50.18823242 C103.67248047 49.39932617 103.95091797 48.61041992 104.23779297 47.79760742 C105.07269158 45.20410504 105.07269158 45.20410504 104.89404297 41.43823242 C101.26404297 41.43823242 97.63404297 41.43823242 93.89404297 41.43823242 Z M31.89404297 58.43823242 C32.37343665 63.15227031 32.86238344 67.10402544 34.89404297 71.43823242 C37.86404297 71.43823242 40.83404297 71.43823242 43.89404297 71.43823242 C43.23404297 67.14823242 42.57404297 62.85823242 41.89404297 58.43823242 C38.59404297 58.43823242 35.29404297 58.43823242 31.89404297 58.43823242 Z M46.89404297 58.43823242 C47.22404297 62.72823242 47.55404297 67.01823242 47.89404297 71.43823242 C50.86404297 71.43823242 53.83404297 71.43823242 56.89404297 71.43823242 C56.89404297 67.14823242 56.89404297 62.85823242 56.89404297 58.43823242 C53.59404297 58.43823242 50.29404297 58.43823242 46.89404297 58.43823242 Z M60.89404297 58.43823242 C61.22404297 62.72823242 61.55404297 67.01823242 61.89404297 71.43823242 C64.86404297 71.43823242 67.83404297 71.43823242 70.89404297 71.43823242 C70.89404297 67.14823242 70.89404297 62.85823242 70.89404297 58.43823242 C67.59404297 58.43823242 64.29404297 58.43823242 60.89404297 58.43823242 Z M75.89404297 58.43823242 C75.89404297 62.72823242 75.89404297 67.01823242 75.89404297 71.43823242 C79.89658753 71.53004376 79.89658753 71.53004376 83.89404297 71.43823242 C85.70520252 69.62707287 85.27603745 66.82545015 85.45654297 64.37573242 C85.54033203 63.27100586 85.62412109 62.1662793 85.71044922 61.02807617 C85.77103516 60.17342773 85.83162109 59.3187793 85.89404297 58.43823242 C82.59404297 58.43823242 79.29404297 58.43823242 75.89404297 58.43823242 Z M90.89404297 58.43823242 C90.23404297 62.72823242 89.57404297 67.01823242 88.89404297 71.43823242 C93.51031411 71.15324265 93.51031411 71.15324265 97.55029297 69.18823242 C99.18606716 67.05792185 99.58631773 65.37923561 100.08154297 62.75073242 C100.34966797 61.32760742 100.61779297 59.90448242 100.89404297 58.43823242 C97.59404297 58.43823242 94.29404297 58.43823242 90.89404297 58.43823242 Z " fill="#020203" transform="translate(13.10595703125,-0.438232421875)"/>
<path d="M0 0 C2.94596734 3.36272157 3.86909172 6.5086689 4.9375 10.81640625 C5.27964289 12.16690674 5.62209944 13.5173278 5.96484375 14.86767578 C6.13612793 15.55516907 6.30741211 16.24266235 6.48388672 16.95098877 C7.28522103 20.13235043 8.14457232 23.29766471 9 26.46484375 C9.66666667 28.95572917 10.33333333 31.44661458 11 33.9375 C11.33 35.16662109 11.66 36.39574219 12 37.66210938 C14.43097347 46.75451992 16.71653328 55.86613312 19 65 C30.55 65.33 42.1 65.66 54 66 C53.34 66.99 52.68 67.98 52 69 C49.47990049 69.22789463 47.19029015 69.27286904 44.67578125 69.1953125 C43.15560609 69.18832595 41.63542157 69.18318271 40.11523438 69.1796875 C37.73404263 69.15930432 35.35568265 69.12622696 32.9753418 69.05859375 C20.80160617 68.75023528 11.35094704 70.70492621 2 79 C0.82299949 81.51325449 0.82299949 81.51325449 1 84 C1.66 84.99 2.32 85.98 3 87 C5.808149 87.31599506 8.40058922 87.43737923 11.21337891 87.43237305 C12.0622316 87.4425647 12.91108429 87.45275635 13.78565979 87.46325684 C16.59936 87.49351953 19.41272056 87.5026729 22.2265625 87.51171875 C24.17427717 87.52855562 26.12198092 87.5467045 28.06967163 87.56611633 C33.20215438 87.61373029 38.33459283 87.64346581 43.46722412 87.66955566 C48.7021968 87.69930385 53.93701662 87.74585378 59.171875 87.79101562 C69.4478369 87.8771783 79.72383015 87.94446576 90 88 C90 89.32 90 90.64 90 92 C78.74303322 92.09268237 67.48615723 92.16375619 56.2288866 92.20724869 C51.00165644 92.22812301 45.77468734 92.25643808 40.54760742 92.30175781 C35.50311912 92.34522071 30.45888191 92.36913827 25.41422081 92.37950897 C23.48967219 92.38689952 21.5651373 92.40133154 19.64069557 92.42292023 C16.94481337 92.45196014 14.24996853 92.45595577 11.55395508 92.45410156 C10.75841721 92.46848267 9.96287933 92.48286377 9.14323425 92.49768066 C5.37995913 92.46967575 3.22897191 92.14663625 0.02787781 90.09661865 C-3.01152914 86.95418213 -3.53662664 84.50050369 -3.46484375 80.08984375 C-2.55761439 76.01112352 0.64227118 74.15940893 4 72 C6.9510814 70.23028505 9.93786539 68.56925719 13 67 C13.45872961 60.36246344 11.75273565 54.66152779 9.9375 48.3125 C9.29586721 46.00454717 8.65663128 43.69592694 8.01953125 41.38671875 C7.52187256 39.58533447 7.52187256 39.58533447 7.01416016 37.74755859 C5.29517273 31.39549865 3.70854354 25.01208391 2.125 18.625 C1.67821899 16.82542847 1.67821899 16.82542847 1.22241211 14.98950195 C0.69563272 12.86384986 0.16970402 10.73798657 -0.35498047 8.61181641 C-0.75645758 6.98615323 -1.20147122 5.3698666 -1.71142578 3.77490234 C-1.80665527 3.18918457 -1.90188477 2.6034668 -2 2 C-1.34 1.34 -0.68 0.68 0 0 Z " fill="#AEC5F5" transform="translate(26,10)"/>
<path d="M0 0 C2.8100346 1.79363911 4.50940468 3.01880935 6 6 C6.50761671 10.39934481 6.25800237 12.54225386 4.0625 16.4375 C0.46521985 19.4474691 -1.28762973 19.79461505 -5.84375 19.4453125 C-9.2596485 18.7398552 -10.82048981 17.72438773 -13 15 C-13.98360694 12.26452507 -14.29992854 9.89375495 -14 7 C-10.55894767 0.47386627 -7.2947632 -1.04809816 0 0 Z " fill="#000102" transform="translate(47,109)"/>
<path d="M0 0 C3.03978021 0.68164768 4.80055419 2.23591662 6.93359375 4.43359375 C8.55067333 7.66775291 8.50181751 10.9373464 7.93359375 14.43359375 C5.90673423 17.57195688 4.48062183 19.09229642 0.7734375 19.91015625 C-3.38182449 20.17376219 -5.56354144 19.75173271 -9.12890625 17.49609375 C-11.73317148 13.37967452 -12.11344628 10.17960305 -11.06640625 5.43359375 C-8.06278312 0.83429584 -5.28483659 -0.3296779 0 0 Z " fill="#000102" transform="translate(109.06640625,108.56640625)"/>
<path d="M0 0 C1.65 0 3.3 0 5 0 C5 1.32 5 2.64 5 4 C-23.71 4 -52.42 4 -82 4 C-82 3.67 -82 3.34 -82 3 C-54.94 3 -27.88 3 0 3 C0 2.01 0 1.02 0 0 Z " fill="#8293B7" transform="translate(111,98)"/>
<path d="M0 0 C2.9375 0.8125 2.9375 0.8125 4.9375 3.8125 C4.6133631 7.13490324 4.32973697 8.42026303 1.9375 10.8125 C-1.0625 11.0625 -1.0625 11.0625 -4.0625 10.8125 C-6.0625 8.8125 -6.0625 8.8125 -6.375 5.3125 C-6.271875 4.1575 -6.16875 3.0025 -6.0625 1.8125 C-3.0625 -0.1875 -3.0625 -0.1875 0 0 Z " fill="#1C3B5B" transform="translate(44.0625,113.1875)"/>
<path d="M0 0 C1.8125 1.1875 1.8125 1.1875 3 3 C3.42674516 5.84496772 3.36066991 7.36352369 1.9375 9.875 C-1.11569315 11.64782183 -3.66411708 10.69235306 -7 10 C-8.33359073 3.57451737 -8.33359073 3.57451737 -6.875 1.0625 C-4.36352369 -0.36066991 -2.84496772 -0.42674516 0 0 Z " fill="#1C3B5B" transform="translate(110,113)"/>
<path d="M0 0 C13.81776765 -0.55353075 13.81776765 -0.55353075 19 3 C18.67 3.99 18.34 4.98 18 6 C17.21882813 5.76990234 17.21882813 5.76990234 16.421875 5.53515625 C13.36721485 4.86017489 10.36984029 4.65588882 7.25 4.4375 C6.07953125 4.35371094 4.9090625 4.26992187 3.703125 4.18359375 C2.81109375 4.12300781 1.9190625 4.06242188 1 4 C0.67 2.68 0.34 1.36 0 0 Z " fill="#E64435" transform="translate(4,4)"/>
<path d="M0 0 C0.99 0 1.98 0 3 0 C2.979375 0.9075 2.95875 1.815 2.9375 2.75 C2.9889755 5.42672588 3.2215017 7.46988052 4 10 C2.35 9.67 0.7 9.34 -1 9 C-1.625 5.625 -1.625 5.625 -2 2 C-1.34 1.34 -0.68 0.68 0 0 Z " fill="#33528F" transform="translate(104,114)"/>
<path d="M0 0 C1.32 0 2.64 0 4 0 C3.814375 0.9075 3.62875 1.815 3.4375 2.75 C3.04265379 5.68314324 3.05308428 7.2644657 4 10 C0.125 9.125 0.125 9.125 -1 8 C-1.125 4.5 -1.125 4.5 -1 1 C-0.67 0.67 -0.34 0.34 0 0 Z " fill="#33528F" transform="translate(39,114)"/>
<path d="M0 0 C1.65 0 3.3 0 5 0 C5.33 0.99 5.66 1.98 6 3 C4.02 3 2.04 3 0 3 C0 2.01 0 1.02 0 0 Z " fill="#97AAD2" transform="translate(111,98)"/>
</svg>
