<?xml version="1.0" encoding="UTF-8"?>
<svg version="1.1" xmlns="http://www.w3.org/2000/svg" width="128" height="128">
<path d="M0 0 C3.61834874 2.75637333 6.83099072 5.74263545 10 9 C10.54914063 9.51691406 11.09828125 10.03382812 11.6640625 10.56640625 C15.44760148 14.44099296 17.80083361 19.09719923 20.25 23.875 C20.76264404 24.86512085 20.76264404 24.86512085 21.28564453 25.87524414 C27.50179692 38.51041787 28.61379576 55.98290512 24.09765625 69.36328125 C19.79220218 79.70556415 15.14367199 88.07722328 7 96 C6.48308594 96.54914063 5.96617188 97.09828125 5.43359375 97.6640625 C1.55900704 101.44760148 -3.09719923 103.80083361 -7.875 106.25 C-8.86512085 106.76264404 -8.86512085 106.76264404 -9.87524414 107.28564453 C-22.51041787 113.50179692 -39.98290512 114.61379576 -53.36328125 110.09765625 C-63.70556415 105.79220218 -72.07722328 101.14367199 -80 93 C-80.54914063 92.48308594 -81.09828125 91.96617188 -81.6640625 91.43359375 C-85.44760148 87.55900704 -87.80083361 82.90280077 -90.25 78.125 C-90.5917627 77.46491943 -90.93352539 76.80483887 -91.28564453 76.12475586 C-97.50179692 63.48958213 -98.61379576 46.01709488 -94.09765625 32.63671875 C-89.79220218 22.29443585 -85.14367199 13.92277672 -77 6 C-76.48308594 5.45085938 -75.96617188 4.90171875 -75.43359375 4.3359375 C-71.55900704 0.55239852 -66.90280077 -1.80083361 -62.125 -4.25 C-61.46491943 -4.5917627 -60.80483887 -4.93352539 -60.12475586 -5.28564453 C-40.63734755 -14.87290485 -17.97385498 -10.78847842 0 0 Z M-72.96484375 15.87109375 C-83.81471253 27.2907587 -86.62068698 40.86855755 -86.30859375 56.0390625 C-85.83209607 66.52992024 -81.63768431 75.87757052 -75 84 C-72.90615394 85.31023623 -72.90615394 85.31023623 -71 86 C-70.67128906 85.48050781 -70.34257813 84.96101563 -70.00390625 84.42578125 C-65.51174467 77.83971238 -59.93764526 73.55829034 -52 72 C-49.49878685 71.87041736 -47.02569142 71.78844157 -44.5234375 71.76171875 C-43.7981485 71.753647 -43.0728595 71.74557526 -42.32559204 71.73725891 C-40.79081586 71.72345352 -39.25600944 71.71271557 -37.72119141 71.70483398 C-36.16771302 71.69335667 -34.61427274 71.6729725 -33.06103516 71.64331055 C-22.5285735 71.44244643 -13.25171103 71.7599349 -4.5625 78.4375 C-2.16422954 80.83577046 -0.54515063 82.99554043 1 86 C7.55655341 83.44064362 10.36585437 76.28258409 13.33984375 70.30859375 C17.99044994 58.67380317 17.99334056 43.30206028 13.328125 31.671875 C6.19869153 17.32913238 -3.70365338 7.1205746 -19 1.625 C-39.37598482 -4.45894914 -57.84614584 1.47376512 -72.96484375 15.87109375 Z " fill="#000000" transform="translate(99,13)"/>
<path d="M0 0 C5.2959176 5.41907848 8.07523269 10.92761706 8.375 18.5 C8.12023725 24.93552865 6.0471259 30.80948377 1.625 35.61328125 C-4.51167078 40.85010367 -11.02973576 42.86776355 -19.0390625 42.4765625 C-25.91332545 41.37015079 -31.15940357 38.5249414 -35.5 33.0625 C-39.52181613 26.97297049 -40.9066336 21.22982177 -40 14 C-38.13354099 6.27427727 -34.52308114 1.47072896 -28 -3 C-25.375 -4.375 -25.375 -4.375 -23 -5 C-22.13375 -5.2475 -21.2675 -5.495 -20.375 -5.75 C-12.91532914 -6.30256821 -5.76634414 -4.9425807 0 0 Z " fill="#000000" transform="translate(80,34)"/>
</svg>
